<svg width="773" height="111" viewBox="0 0 773 111" fill="none" xmlns="http://www.w3.org/2000/svg">
<path d="M0 109.133V0H51.7399C56.2112 0 60.4164 0.658421 64.3555 1.97527C68.2945 3.2921 71.7012 5.26737 74.5757 7.90105C77.5566 10.425 79.8987 13.5525 81.6021 17.2835C83.3055 20.9049 84.1571 25.02 84.1571 29.6289C84.1571 32.2626 83.8378 34.7317 83.199 37.0362C82.6667 39.3406 81.7618 41.5902 80.4842 43.785C79.3132 45.87 77.7695 47.7904 75.8532 49.5462C74.0434 51.1922 71.8077 52.7285 69.1462 54.1551L68.8268 52.3445C75.9597 54.3197 81.1762 57.7216 84.4765 62.55C87.8833 67.3784 89.5866 72.9201 89.5866 79.1751C89.5866 83.784 88.7349 87.954 87.0316 91.6851C85.4347 95.3064 83.1458 98.4339 80.1649 101.068C77.2904 103.592 73.8837 105.567 69.9446 106.993C66.0056 108.42 61.6939 109.133 57.0097 109.133H0ZM25.8699 87.4054H49.3445C51.0479 87.4054 52.5916 87.0762 53.9756 86.4177C55.466 85.7593 56.6371 84.9363 57.4887 83.9487C58.4469 82.961 59.1921 81.8088 59.7244 80.4919C60.2567 79.0654 60.5229 77.6388 60.5229 76.2122C60.5229 74.6759 60.2567 73.2493 59.7244 71.9325C59.1921 70.5059 58.4469 69.2439 57.4887 68.1466C56.6371 67.0492 55.5192 66.2262 54.1352 65.6775C52.7513 65.0191 51.1543 64.6898 49.3445 64.6898H25.3909V43.4558H46.6298C48.2267 43.4558 49.6107 43.1814 50.7817 42.6327C52.0593 42.0841 53.1239 41.3159 53.9756 40.3283C54.8272 39.3406 55.466 38.1884 55.8918 36.8716C56.4241 35.5547 56.6903 34.2379 56.6903 32.921C56.6903 30.0679 55.7321 27.6537 53.8159 25.6784C52.006 23.5934 49.3445 22.5509 45.8313 22.5509H25.8699L27.7862 20.5756V89.3806L25.8699 87.4054Z" fill="white"/>
<path d="M91.7175 109.133L132.758 0H165.974L207.174 109.133H176.992L169.008 87.8992L171.563 89.7098H127.169L129.724 87.8992L121.739 109.133H91.7175ZM134.994 69.2988L133.876 67.4881H165.016L163.738 69.2988L148.727 26.1722H150.005L134.994 69.2988Z" fill="white"/>
<path d="M215.52 109.133V0H238.995L289.138 64.6898L288.02 65.1837V0H315.647V109.133H292.811L241.71 44.4434L242.987 43.9496V109.133H215.52Z" fill="white"/>
<path d="M336.38 109.133V0H385.565C393.443 0 400.576 1.37171 406.964 4.11514C413.351 6.74882 418.781 10.5347 423.252 15.4729C427.83 20.3013 431.343 26.0625 433.792 32.7564C436.347 39.3406 437.624 46.5833 437.624 54.4843C437.624 62.3854 436.347 69.6829 433.792 76.3768C431.343 83.0708 427.83 88.8868 423.252 93.825C418.781 98.6534 413.351 102.439 406.964 105.183C400.682 107.816 393.603 109.133 385.725 109.133H336.38ZM362.729 84.6071H383.809C387.854 84.6071 391.42 83.8389 394.508 82.3026C397.595 80.6566 400.203 78.4618 402.333 75.7184C404.568 72.975 406.218 69.7926 407.283 66.1713C408.348 62.55 408.88 58.6543 408.88 54.4843C408.88 50.3143 408.348 46.4187 407.283 42.7974C406.218 39.176 404.622 36.0485 402.492 33.4149C400.363 30.6714 397.755 28.5316 394.667 26.9953C391.58 25.4589 388.014 24.6908 383.968 24.6908H362.729L364.646 22.7155V86.5823L362.729 84.6071Z" fill="white"/>
<path d="M477.971 84.9363H527.795V109.133H451.782V0H526.837V24.197H477.971L479.888 22.2217V86.9116L477.971 84.9363ZM477.492 42.1389H521.247V65.0191H477.492V42.1389Z" fill="white"/>
<path d="M532.955 72.2617V70.1218H560.901V71.6033C560.901 73.9077 561.22 75.883 561.859 77.5291C562.604 79.1751 563.456 80.6017 564.414 81.8088C565.479 82.9062 566.703 83.7841 568.087 84.4425C569.471 84.9912 570.908 85.2655 572.398 85.2655C574.102 85.2655 575.646 84.9912 577.03 84.4425C578.414 83.7841 579.585 82.8513 580.543 81.6442C581.501 80.3273 582.246 78.791 582.778 77.0352C583.311 75.2794 583.577 73.2493 583.577 70.9448V0H611.682V73.5785C611.682 78.9556 610.724 83.9487 608.808 88.5576C606.998 93.0568 604.39 97.0073 600.983 100.409C597.576 103.701 593.478 106.28 588.687 108.146C583.896 109.901 578.52 110.779 572.558 110.779C566.596 110.779 561.167 109.792 556.27 107.816C551.373 105.841 547.167 103.153 543.654 99.7507C540.247 96.2392 537.586 92.1789 535.67 87.57C533.86 82.8513 532.955 77.7485 532.955 72.2617Z" fill="white"/>
<path d="M619.134 109.133L660.175 0H693.391L734.591 109.133H704.409L696.425 87.8992L698.98 89.7098H654.586L657.141 87.8992L649.156 109.133H619.134ZM662.411 69.2988L661.293 67.4881H692.432L691.155 69.2988L676.144 26.1722H677.422L662.411 69.2988Z" fill="white"/>
<rect width="66.5379" height="68.5855" transform="translate(348.925 21.3428)" fill="#FCFCFD"/>
<path fill-rule="evenodd" clip-rule="evenodd" d="M358.669 31.3873C363.225 26.6905 368.775 23.6409 374.621 22.2386C377.161 21.6291 379.555 23.566 379.488 26.254C379.321 33.0059 376.737 39.7059 371.738 44.8588C366.739 50.0117 360.239 52.6747 353.689 52.8478C351.081 52.9168 349.202 50.4492 349.793 47.8302C351.154 41.8044 354.112 36.0841 358.669 31.3873ZM358.669 79.8846C354.731 75.8258 351.987 71.0027 350.436 65.8787C349.489 62.7512 352.19 59.9874 355.36 59.7569C363.073 59.1961 370.633 55.8766 376.53 49.7983C382.427 43.72 385.647 35.9276 386.191 27.9771C386.415 24.7091 389.096 21.9256 392.13 22.9013C397.101 24.4999 401.78 27.3285 405.718 31.3873C409.656 35.4461 412.4 40.2691 413.951 45.3932C414.897 48.5207 412.197 51.2844 409.026 51.515C401.313 52.0757 393.754 55.3953 387.857 61.4736C381.96 67.5519 378.739 75.3442 378.195 83.2948C377.972 86.5628 375.291 89.3463 372.256 88.3706C367.285 86.772 362.606 83.9433 358.669 79.8846ZM410.698 58.424C413.306 58.3551 415.185 60.8227 414.594 63.4416C413.233 69.4675 410.275 75.1878 405.718 79.8846C401.161 84.5814 395.612 87.631 389.766 89.0333C387.225 89.6428 384.831 87.7059 384.898 85.0179C385.066 78.266 387.65 71.566 392.649 66.4131C397.648 61.2602 404.148 58.5972 410.698 58.424Z" fill="#1E1E1E"/>
<path d="M772.591 106.428C772.591 107.476 772.263 108.333 771.607 109C770.92 109.667 770.092 110 769.124 110C768.124 110 767.297 109.667 766.641 109C765.953 108.333 765.61 107.476 765.61 106.428C765.61 105.412 765.953 104.571 766.641 103.904C767.297 103.206 768.124 102.856 769.124 102.856C770.092 102.856 770.92 103.206 771.607 103.904C772.263 104.571 772.591 105.412 772.591 106.428Z" fill="white"/>
<path d="M772.591 84.0819C772.591 86.4949 772.2 88.7332 771.42 90.797C770.639 92.8289 769.545 94.6069 768.14 96.1309C766.734 97.6231 765.063 98.7979 763.127 99.6551C761.159 100.481 759.004 100.893 756.661 100.893C754.318 100.893 752.163 100.481 750.196 99.6551C748.228 98.7979 746.541 97.6231 745.135 96.1309C743.699 94.6069 742.59 92.8289 741.809 90.797C740.997 88.7332 740.591 86.4949 740.591 84.0819C740.591 81.6372 740.997 79.383 741.809 77.3193C742.59 75.2555 743.699 73.4776 745.135 71.9853C746.541 70.4931 748.228 69.3342 750.196 68.5088C752.163 67.6515 754.318 67.2229 756.661 67.2229C759.035 67.2229 761.206 67.6515 763.174 68.5088C765.11 69.3342 766.781 70.4931 768.187 71.9853C769.561 73.4776 770.639 75.2555 771.42 77.3193C772.2 79.383 772.591 81.6372 772.591 84.0819ZM766.547 84.0819C766.547 82.6532 766.313 81.3356 765.844 80.1291C765.376 78.9226 764.72 77.8749 763.876 76.9859C763.033 76.0969 762.002 75.3984 760.784 74.8904C759.535 74.3824 758.16 74.1284 756.661 74.1284C755.131 74.1284 753.756 74.3824 752.538 74.8904C751.32 75.3984 750.274 76.0969 749.399 76.9859C748.524 77.8749 747.853 78.9226 747.384 80.1291C746.916 81.3356 746.682 82.6532 746.682 84.0819C746.682 85.4472 746.916 86.733 747.384 87.9395C747.853 89.146 748.524 90.1937 749.399 91.0827C750.274 91.9717 751.32 92.6702 752.538 93.1782C753.756 93.6862 755.131 93.9402 756.661 93.9402C758.16 93.9402 759.535 93.6862 760.784 93.1782C762.002 92.6702 763.033 91.9717 763.876 91.0827C764.72 90.1937 765.376 89.146 765.844 87.9395C766.313 86.733 766.547 85.4472 766.547 84.0819Z" fill="white"/>
<path d="M772.122 43.2946L761.112 49.7715L759.847 43.1041L772.122 35.6747L772.122 43.2946ZM772.122 62.0586L741.059 62.0586L741.059 47.0093C741.059 45.4219 741.325 43.9614 741.856 42.6279C742.356 41.2627 743.074 40.0879 744.011 39.1037C744.917 38.0877 746.01 37.3098 747.291 36.7701C748.54 36.1986 749.914 35.9129 751.414 35.9129C752.913 35.9129 754.303 36.1986 755.583 36.7701C756.833 37.3098 757.91 38.0718 758.816 39.0561C759.722 40.0403 760.44 41.215 760.971 42.5803C761.502 43.9455 761.768 45.4219 761.768 47.0093L761.768 56.1056L756.239 56.1056L756.239 47.9142C756.239 47.1522 756.13 46.4537 755.911 45.8187C755.662 45.1837 755.318 44.644 754.881 44.1995C754.443 43.7233 753.928 43.3581 753.335 43.1041C752.741 42.8501 752.101 42.7231 751.414 42.7231C750.695 42.7231 750.055 42.866 749.493 43.1518C748.899 43.4375 748.4 43.8185 747.993 44.2948C747.556 44.7392 747.228 45.279 747.01 45.914C746.791 46.549 746.682 47.2157 746.682 47.9142L746.682 55.9627L746.119 55.3912L772.122 55.3912L772.122 62.0586Z" fill="white"/>
<path d="M772.122 4.85768L755.443 6.47691L755.443 -6.49207e-07L772.122 0.0476137L772.122 4.85768ZM755.443 16.8114L755.443 0.142867C756.442 0.111114 757.583 0.23812 758.863 0.523864C760.113 0.777862 761.378 1.17473 762.658 1.71447C763.908 2.22246 765.141 2.90508 766.359 3.76232C767.546 4.58781 768.608 5.6038 769.545 6.81028C770.451 7.98501 771.185 9.35024 771.747 10.906C772.31 12.43 772.591 14.1444 772.591 16.0494C772.591 18.4306 772.2 20.6372 771.42 22.6692C770.607 24.6694 769.499 26.3998 768.093 27.8603C766.656 29.289 764.954 30.4161 762.986 31.2416C761.018 32.0671 758.879 32.4798 756.567 32.4798C754.256 32.4798 752.132 32.0671 750.196 31.2416C748.228 30.4161 746.541 29.2731 745.135 27.8126C743.699 26.3521 742.59 24.6218 741.809 22.6216C740.997 20.6213 740.591 18.4465 740.591 16.097C740.591 14.0968 740.856 12.2077 741.387 10.4297C741.887 8.65176 742.621 7.06428 743.589 5.6673C744.558 4.23856 745.745 3.04796 747.15 2.09547C748.556 1.14298 750.149 0.492111 751.929 0.142868L751.929 7.19128C751.086 7.47703 750.336 7.90564 749.68 8.47713C749.024 9.04862 748.478 9.71536 748.04 10.4774C747.603 11.2076 747.275 12.0331 747.056 12.9538C746.807 13.8428 746.682 14.7635 746.682 15.716C746.682 17.113 746.916 18.4147 747.384 19.6212C747.853 20.8277 748.509 21.8755 749.352 22.7644C750.196 23.6217 751.242 24.3043 752.491 24.8123C753.709 25.3203 755.068 25.5743 756.567 25.5743C758.285 25.5743 759.769 25.3044 761.018 24.7647C762.268 24.1932 763.298 23.4471 764.111 22.5263C764.923 21.6056 765.532 20.5578 765.938 19.3831C766.344 18.2084 766.547 17.0019 766.547 15.7637C766.547 14.7159 766.406 13.6682 766.125 12.6205C765.844 11.5727 765.438 10.6202 764.907 9.76299C764.345 8.90575 763.642 8.17551 762.799 7.57226C761.955 6.93728 760.956 6.50866 759.8 6.28641L760.362 5.95304L760.362 16.8114L755.443 16.8114Z" fill="white"/>
</svg>
