<svg width="48" height="49" viewBox="0 0 48 49" fill="none" xmlns="http://www.w3.org/2000/svg">
<path d="M1.376 46V35.024H2.896V39.728H8.864V35.024H10.4V46H8.864V41.056H2.896V46H1.376ZM17.7352 46.192C16.5939 46.192 15.6126 45.984 14.7912 45.568C13.9806 45.152 13.3512 44.5227 12.9032 43.68C12.4659 42.8373 12.2472 41.7813 12.2472 40.512C12.2472 39.232 12.4659 38.176 12.9032 37.344C13.3512 36.5013 13.9806 35.872 14.7912 35.456C15.6126 35.04 16.5939 34.832 17.7352 34.832C18.8766 34.832 19.8526 35.04 20.6632 35.456C21.4846 35.872 22.1139 36.5013 22.5513 37.344C22.9993 38.176 23.2233 39.232 23.2233 40.512C23.2233 41.7813 22.9993 42.8373 22.5513 43.68C22.1139 44.5227 21.4846 45.152 20.6632 45.568C19.8526 45.984 18.8766 46.192 17.7352 46.192ZM17.7352 44.88C18.3326 44.88 18.8712 44.8 19.3513 44.64C19.8419 44.48 20.2526 44.2293 20.5833 43.888C20.9246 43.536 21.1859 43.0987 21.3673 42.576C21.5486 42.0427 21.6392 41.4133 21.6392 40.688V40.352C21.6392 39.616 21.5486 38.9867 21.3673 38.464C21.1859 37.9307 20.9246 37.4933 20.5833 37.152C20.2526 36.8 19.8419 36.544 19.3513 36.384C18.8712 36.224 18.3326 36.144 17.7352 36.144C17.1272 36.144 16.5832 36.224 16.1033 36.384C15.6232 36.544 15.2126 36.8 14.8712 37.152C14.5299 37.4933 14.2686 37.9307 14.0872 38.464C13.9166 38.9867 13.8312 39.616 13.8312 40.352V40.688C13.8312 41.4133 13.9166 42.0427 14.0872 42.576C14.2686 43.0987 14.5299 43.536 14.8712 43.888C15.2126 44.2293 15.6232 44.48 16.1033 44.64C16.5832 44.8 17.1272 44.88 17.7352 44.88ZM25.0666 46V35.024H27.4186L29.9146 42.144C29.9786 42.336 30.0426 42.5493 30.1066 42.784C30.1813 43.008 30.2453 43.2213 30.2986 43.424C30.3626 43.6267 30.4106 43.8027 30.4426 43.952H30.5546C30.5866 43.792 30.6293 43.6107 30.6826 43.408C30.736 43.1947 30.7946 42.976 30.8586 42.752C30.9226 42.528 30.9813 42.3253 31.0346 42.144L33.5306 35.024H35.8666V46H34.3466V39.568C34.3466 39.2373 34.352 38.88 34.3626 38.496C34.3733 38.1013 34.384 37.744 34.3946 37.424C34.4053 37.0933 34.4106 36.8587 34.4106 36.72H34.2826C34.2506 36.8587 34.1973 37.056 34.1226 37.312C34.048 37.5573 33.968 37.8187 33.8826 38.096C33.808 38.3627 33.7386 38.6027 33.6746 38.816L31.0986 46H29.7866L27.2106 38.816C27.1466 38.6347 27.0773 38.4267 27.0026 38.192C26.9386 37.9467 26.8693 37.696 26.7946 37.44C26.7306 37.184 26.6666 36.944 26.6026 36.72H26.4906C26.5013 36.9547 26.5066 37.248 26.5066 37.6C26.5173 37.9413 26.5226 38.288 26.5226 38.64C26.5333 38.9813 26.5386 39.2907 26.5386 39.568V46H25.0666ZM38.2635 46V35.024H46.7115V36.336H39.7835V39.728H46.0075V41.04H39.7835V44.688H46.8075V46H38.2635Z" fill="#8FCE9E"/>
<g clip-path="url(#clip0_94_319)">
<path d="M38.4065 13.6565L33.8705 9.10981V3.85768C33.8705 2.90801 33.1027 2.13839 32.1539 2.13839C31.2072 2.13839 30.4394 2.90801 30.4394 3.85768V5.67082L27.062 2.28536C25.3922 0.612527 22.4889 0.615494 20.8229 2.28839L9.48115 13.6565C8.81162 14.3289 8.81162 15.4169 9.48115 16.0883C10.151 16.7606 11.2386 16.7606 11.9082 16.0883L23.2488 4.71995C23.6183 4.35158 24.2694 4.35158 24.6369 4.71886L35.9795 16.0883C36.3158 16.4245 36.7543 16.5917 37.1927 16.5917C37.632 16.5917 38.0712 16.4243 38.4065 16.0883C39.0763 15.417 39.0763 14.329 38.4065 13.6565Z" fill="#8FCE9E"/>
<path d="M24.5398 7.98366C24.2103 7.65356 23.6768 7.65356 23.3483 7.98366L13.372 17.9803C13.2145 18.1381 13.1252 18.3536 13.1252 18.5784V25.8696C13.1252 27.5805 14.5092 28.9677 16.2161 28.9677H21.1553V21.3005H26.7317V28.9677H31.671C33.3778 28.9677 34.7618 27.5805 34.7618 25.8696V18.5784C34.7618 18.3536 34.6733 18.1381 34.515 17.9803L24.5398 7.98366Z" fill="#8FCE9E"/>
</g>
<defs>
<clipPath id="clip0_94_319">
<rect width="29.9299" height="30" fill="white" transform="translate(8.979)"/>
</clipPath>
</defs>
</svg>
