<svg width="72" height="50" viewBox="0 0 72 50" fill="none" xmlns="http://www.w3.org/2000/svg">
<path d="M40.5 7.6792C40.5123 7.73957 40.5444 7.79392 40.5493 7.85632C40.5647 8.06827 40.5333 8.27629 40.4597 8.46972C40.6551 8.90926 40.5896 9.43957 40.2443 9.82655C40.1603 9.91948 40.065 9.99924 39.96 10.064C39.9085 10.1754 39.84 10.281 39.7544 10.3785C39.6718 10.4704 39.577 10.5491 39.4744 10.6134C39.423 10.7241 39.3543 10.828 39.2716 10.9209C39.0229 11.2041 38.66 11.367 38.2771 11.367C38.1935 11.367 38.1107 11.3592 38.0291 11.3439L37.1855 12.2931C37.2603 12.4878 37.2932 12.6861 37.3327 12.8839C37.3791 12.8558 37.4316 12.8401 37.4749 12.8062L41.143 9.89831C41.6964 9.46006 41.7801 8.66739 41.3315 8.12723C41.1158 7.86857 40.8147 7.72056 40.5 7.6792Z" fill="#3B4A3F"/>
<path d="M27.3731 16.9481C27.2502 16.6629 27.1555 16.3707 27.0919 16.0698C27.0919 16.6654 27.0881 28.0819 27.0881 28.6774C27.0881 29.5121 27.7814 30.1886 28.636 30.1886C29.4902 30.1886 30.1836 29.5121 30.1836 28.6774V19.6892C29.68 19.4802 29.199 19.2004 28.768 18.8354C28.1432 18.306 27.6787 17.6539 27.3731 16.9481Z" fill="#3B4A3F"/>
<path d="M31.3123 20.0157V28.6775C31.3123 29.5122 32.006 30.1886 32.8603 30.1886C33.7149 30.1886 34.4083 29.5122 34.4083 28.6775V19.4009C33.7501 19.8428 32.9572 20.0881 32.0897 20.0881C31.8293 20.0881 31.5694 20.058 31.3123 20.0157Z" fill="#3B4A3F"/>
<path d="M30.7468 5.88768C32.4136 5.88768 33.7642 4.57011 33.7642 2.94409C33.7642 1.31751 32.4135 0 30.7468 0C29.0812 0 27.7317 1.31751 27.7317 2.94409C27.7317 4.57011 29.0812 5.88768 30.7468 5.88768Z" fill="#3B4A3F"/>
<path d="M47.3246 0.282198C47.2744 0.243303 47.2069 0.229641 47.1444 0.244842L44.2069 0.960093C44.0547 0.996957 43.9478 1.13007 43.9478 1.28307V4.19239C43.9236 4.1898 43.9033 4.17854 43.8792 4.17854C43.4629 4.17854 43.1252 4.5081 43.1252 4.91441C43.1252 5.3201 43.4629 5.64966 43.8792 5.64966C44.2954 5.64966 44.6331 5.32003 44.6331 4.91441V2.09956L46.7209 1.59091V3.32678C46.6967 3.32426 46.6769 3.31281 46.6523 3.31281C46.2361 3.31281 45.8989 3.64244 45.8989 4.04868C45.8989 4.45437 46.2361 4.784 46.6523 4.784C47.0685 4.784 47.4062 4.45437 47.4062 4.04868V0.445102C47.4061 0.381528 47.3759 0.321647 47.3246 0.282198Z" fill="#3B4A3F"/>
<path d="M37.8103 10.0528L38.0935 10.2922C38.1472 10.3374 38.2126 10.3597 38.2771 10.3597C38.3556 10.3597 38.433 10.3272 38.4886 10.2647C38.5905 10.1506 38.5771 9.97763 38.4602 9.87805L38.1782 9.63964L38.3001 9.50141L38.5826 9.74106C38.6358 9.7858 38.7014 9.80783 38.7668 9.80783C38.8454 9.80783 38.9229 9.77583 38.9796 9.71355C39.0805 9.59889 39.0682 9.42621 38.9513 9.327L38.6681 9.08791L38.7911 8.94968L39.0743 9.18877C39.1264 9.23407 39.192 9.2561 39.2567 9.2561C39.3353 9.2561 39.4127 9.22404 39.4691 9.16163C39.571 9.04747 39.558 8.8749 39.4412 8.77557L39.1579 8.53617L39.4089 8.25369C39.5753 8.06685 39.5549 7.784 39.3625 7.62158L38.644 7.0133C38.5573 6.93944 38.4504 6.90356 38.3435 6.90356C38.2147 6.90356 38.0867 6.95581 37.9958 7.0581L37.7449 7.33996L37.4627 7.10032C37.4095 7.05558 37.3452 7.03336 37.2795 7.03336C37.2011 7.03336 37.122 7.0653 37.0669 7.12776C36.966 7.24187 36.979 7.41505 37.0949 7.51438L37.3781 7.75347L37.2554 7.89114L36.973 7.65205C36.9198 7.60731 36.8541 7.58527 36.7898 7.58527C36.7113 7.58527 36.6327 7.61734 36.5772 7.67968C36.4763 7.79384 36.4883 7.96684 36.6043 8.0658L36.8875 8.30483L36.7656 8.44306L36.4825 8.20403C36.4288 8.1591 36.3632 8.13701 36.2989 8.13701C36.2204 8.13701 36.1417 8.16901 36.0862 8.23086C35.9846 8.34557 35.9976 8.51826 36.1145 8.61747L36.3977 8.85712L34.5462 10.9396C34.1725 10.7777 33.7824 10.6966 33.4088 10.6966C32.7909 10.696 32.2134 10.9179 31.8163 11.3649C31.5683 11.6443 31.4286 11.9827 31.373 12.3424L32.4735 12.7519C32.9554 12.3019 33.71 12.2607 34.224 12.696C34.77 13.1581 34.8288 13.9658 34.3551 14.499C34.2542 14.6131 34.1301 14.6942 34.0032 14.7641C34.0204 15.071 33.976 15.3863 33.8573 15.6923C33.5046 16.5963 32.6228 17.1521 31.6876 17.1521C31.4125 17.1521 31.1323 17.1043 30.8602 17.003L28.1292 15.9869C28.3166 16.7452 28.7519 17.4889 29.444 18.0748C30.2355 18.7447 31.1905 19.0811 32.0898 19.0811C32.9634 19.0811 33.7836 18.7633 34.3502 18.1258C35.0009 17.3931 35.1753 16.3946 34.9204 15.4277C35.3044 15.3288 35.6501 15.1315 35.9142 14.834C36.5519 14.1159 36.5347 13.0335 35.9605 12.1358L37.8103 10.0528Z" fill="#3B4A3F"/>
<path d="M31.6874 16.1448C32.2063 16.1448 32.6961 15.8357 32.8923 15.3337C33.1464 14.684 32.8118 13.9565 32.147 13.7086L27.7165 12.0604L28.1166 11.1309L29.4944 11.6434C29.839 11.5199 30.1988 11.4255 30.5836 11.3945C30.7005 11.1446 30.852 10.9124 31.0363 10.705C31.6369 10.0292 32.5268 9.68938 33.4086 9.68938C33.6746 9.68938 33.9456 9.71874 34.2138 9.77683L35.0574 8.82698C34.9523 8.52665 34.9684 8.19395 35.1015 7.89645L34.3256 6.94531C34.0574 6.61716 33.6554 6.4766 33.2564 6.49438C32.7847 6.41992 28.5773 6.44909 28.2698 6.48786C27.7337 6.45063 27.2098 6.73138 26.991 7.24237C25.2931 11.1923 25.7638 10.0984 24.8225 12.2858C24.5394 12.9462 24.8747 13.6978 25.5518 13.9495L31.2278 16.0615C31.3789 16.1177 31.534 16.1448 31.6874 16.1448Z" fill="#3B4A3F"/>
<path d="M2.02297 47.9622V36.9862H7.44697C8.20431 36.9862 8.83364 37.1302 9.33497 37.4182C9.83631 37.6955 10.2096 38.0848 10.455 38.5862C10.711 39.0875 10.839 39.6688 10.839 40.3302C10.839 41.0022 10.7003 41.5995 10.423 42.1222C10.1456 42.6342 9.75097 43.0342 9.23897 43.3222C8.73764 43.6102 8.13497 43.7542 7.43097 43.7542H3.54297V47.9622H2.02297ZM3.54297 42.4422H7.33497C7.93231 42.4422 8.40697 42.2555 8.75897 41.8822C9.12164 41.5088 9.30297 40.9968 9.30297 40.3462C9.30297 39.9088 9.22831 39.5408 9.07897 39.2422C8.92964 38.9435 8.71097 38.7142 8.42297 38.5542C8.13497 38.3835 7.77231 38.2982 7.33497 38.2982H3.54297V42.4422ZM12.3136 47.9622V36.9862H13.8336V46.6342H19.2896V47.9622H12.3136ZM19.2777 47.9622L23.6137 36.9862H25.6137L29.9657 47.9622H28.3177L27.2457 45.2422H21.9017L20.8457 47.9622H19.2777ZM22.3977 43.9462H26.7337L25.4057 40.5062C25.3737 40.4102 25.3257 40.2768 25.2617 40.1062C25.1977 39.9355 25.1284 39.7488 25.0537 39.5462C24.9791 39.3328 24.9044 39.1195 24.8297 38.9062C24.7551 38.6822 24.6857 38.4795 24.6217 38.2982H24.5257C24.4511 38.5115 24.3657 38.7568 24.2697 39.0342C24.1737 39.3115 24.0777 39.5835 23.9817 39.8502C23.8857 40.1062 23.8057 40.3248 23.7417 40.5062L22.3977 43.9462ZM32.9988 47.9622V43.4022L28.6788 36.9862H30.4228L33.7668 42.0582H33.8468L37.1748 36.9862H38.8388L34.5348 43.4022V47.9622H32.9988ZM40.0292 47.9622V36.9862H48.4772V38.2982H41.5492V41.6902H47.7732V43.0022H41.5492V46.6502H48.5732V47.9622H40.0292ZM50.5073 47.9622V36.9862H56.2833C57.03 36.9862 57.6487 37.1248 58.1393 37.4022C58.6407 37.6688 59.014 38.0475 59.2593 38.5382C59.5047 39.0182 59.6273 39.5728 59.6273 40.2022C59.6273 40.9595 59.4567 41.6102 59.1153 42.1542C58.774 42.6982 58.3047 43.0875 57.7073 43.3222L60.0113 47.9622H58.3473L56.2033 43.5942H52.0273V47.9622H50.5073ZM52.0273 42.2982H56.1393C56.7473 42.2982 57.222 42.1115 57.5633 41.7382C57.9153 41.3648 58.0913 40.8528 58.0913 40.2022C58.0913 39.7968 58.0167 39.4555 57.8673 39.1782C57.718 38.9008 57.4993 38.6875 57.2113 38.5382C56.9233 38.3782 56.566 38.2982 56.1393 38.2982H52.0273V42.2982ZM65.8143 48.1542C65.217 48.1542 64.641 48.0955 64.0863 47.9782C63.5423 47.8608 63.057 47.6742 62.6303 47.4182C62.2037 47.1515 61.8623 46.8102 61.6063 46.3942C61.361 45.9782 61.2383 45.4662 61.2383 44.8582C61.2383 44.8048 61.2383 44.7515 61.2383 44.6982C61.249 44.6448 61.2543 44.5915 61.2543 44.5382H62.7903C62.7903 44.5702 62.785 44.6235 62.7743 44.6982C62.7743 44.7622 62.7743 44.8208 62.7743 44.8742C62.7743 45.3008 62.9023 45.6635 63.1583 45.9622C63.4143 46.2608 63.7663 46.4848 64.2143 46.6342C64.673 46.7728 65.1903 46.8422 65.7663 46.8422C66.0223 46.8422 66.289 46.8262 66.5663 46.7942C66.8543 46.7622 67.1263 46.7088 67.3823 46.6342C67.649 46.5488 67.8837 46.4422 68.0863 46.3142C68.2997 46.1755 68.465 46.0102 68.5823 45.8182C68.7103 45.6155 68.7743 45.3702 68.7743 45.0822C68.7743 44.7195 68.6677 44.4208 68.4543 44.1862C68.2517 43.9408 67.9797 43.7435 67.6383 43.5942C67.297 43.4342 66.9077 43.2955 66.4703 43.1782C66.0437 43.0502 65.601 42.9275 65.1423 42.8102C64.6837 42.6928 64.2357 42.5595 63.7983 42.4102C63.3717 42.2502 62.9877 42.0582 62.6463 41.8342C62.305 41.5995 62.0277 41.3115 61.8143 40.9702C61.6117 40.6288 61.5103 40.2128 61.5103 39.7222C61.5103 39.2635 61.601 38.8528 61.7823 38.4902C61.9743 38.1275 62.2517 37.8235 62.6143 37.5782C62.9877 37.3222 63.4463 37.1302 63.9903 37.0022C64.5343 36.8635 65.1583 36.7942 65.8623 36.7942C66.4383 36.7942 66.9717 36.8582 67.4623 36.9862C67.9637 37.1035 68.401 37.2902 68.7743 37.5462C69.1583 37.7915 69.457 38.1062 69.6704 38.4902C69.8837 38.8742 69.9903 39.3382 69.9903 39.8822V40.0742H68.4863V39.8342C68.4863 39.4715 68.3743 39.1622 68.1503 38.9062C67.9263 38.6502 67.617 38.4528 67.2223 38.3142C66.8383 38.1755 66.401 38.1062 65.9103 38.1062C65.2703 38.1062 64.737 38.1702 64.3103 38.2982C63.8837 38.4155 63.5637 38.5915 63.3503 38.8262C63.1477 39.0502 63.0463 39.3062 63.0463 39.5942C63.0463 39.9248 63.1477 40.2022 63.3503 40.4262C63.5637 40.6502 63.841 40.8368 64.1823 40.9862C64.5237 41.1248 64.913 41.2528 65.3503 41.3702C65.7877 41.4875 66.2303 41.6102 66.6783 41.7382C67.137 41.8555 67.5797 41.9942 68.0063 42.1542C68.4437 42.3035 68.833 42.4955 69.1743 42.7302C69.5263 42.9542 69.8037 43.2422 70.0063 43.5942C70.209 43.9355 70.3103 44.3568 70.3103 44.8582C70.3103 45.6368 70.1183 46.2715 69.7343 46.7622C69.3503 47.2422 68.8223 47.5942 68.1503 47.8182C67.4783 48.0422 66.6997 48.1542 65.8143 48.1542Z" fill="#3B4A3F"/>
</svg>
