<svg width="46" height="50" viewBox="0 0 46 50" fill="none" xmlns="http://www.w3.org/2000/svg">
<path d="M23.0624 4.82143C23.0624 7.21372 21.1476 9.14286 18.798 9.14286C16.4485 9.14286 14.5337 7.21372 14.5337 4.82143C14.5337 2.42914 16.4485 0.5 18.798 0.5C21.1476 0.5 23.0624 2.42914 23.0624 4.82143Z" stroke="#3B4A3F"/>
<path d="M26.2387 5.357C26.2387 7.45343 24.5609 9.14272 22.5038 9.14272C20.4466 9.14272 18.7688 7.45343 18.7688 5.357C18.7688 3.26058 20.4466 1.57129 22.5038 1.57129C24.5609 1.57129 26.2387 3.26058 26.2387 5.357Z" stroke="#3B4A3F"/>
<path d="M35.238 24.9288L32.7971 23.7888V6.67817L35.238 7.81825V24.9288ZM29.3562 5.07103L31.7971 6.2111V23.9718L29.3562 28.1521V5.07103ZM30.3065 28.5077L32.4989 24.7532L34.6912 25.7771L30.3065 28.5077ZM28.3562 4.78564V29.4999H10.2988V4.78564H28.3562Z" fill="#3B4A3F" stroke="white"/>
<path d="M6.22782 47.192C5.63049 47.192 5.05449 47.1333 4.49982 47.016C3.95582 46.8987 3.47049 46.712 3.04382 46.456C2.61716 46.1893 2.27582 45.848 2.01982 45.432C1.77449 45.016 1.65182 44.504 1.65182 43.896C1.65182 43.8427 1.65182 43.7893 1.65182 43.736C1.66249 43.6827 1.66782 43.6293 1.66782 43.576H3.20382C3.20382 43.608 3.19849 43.6613 3.18782 43.736C3.18782 43.8 3.18782 43.8587 3.18782 43.912C3.18782 44.3387 3.31582 44.7013 3.57182 45C3.82782 45.2987 4.17982 45.5227 4.62782 45.672C5.08649 45.8107 5.60382 45.88 6.17982 45.88C6.43582 45.88 6.70249 45.864 6.97982 45.832C7.26782 45.8 7.53982 45.7467 7.79582 45.672C8.06249 45.5867 8.29716 45.48 8.49982 45.352C8.71316 45.2133 8.87849 45.048 8.99582 44.856C9.12382 44.6533 9.18782 44.408 9.18782 44.12C9.18782 43.7573 9.08116 43.4587 8.86782 43.224C8.66516 42.9787 8.39316 42.7813 8.05182 42.632C7.71049 42.472 7.32116 42.3333 6.88382 42.216C6.45716 42.088 6.01449 41.9653 5.55582 41.848C5.09716 41.7307 4.64916 41.5973 4.21182 41.448C3.78516 41.288 3.40116 41.096 3.05982 40.872C2.71849 40.6373 2.44116 40.3493 2.22782 40.008C2.02516 39.6667 1.92382 39.2507 1.92382 38.76C1.92382 38.3013 2.01449 37.8907 2.19582 37.528C2.38782 37.1653 2.66516 36.8613 3.02782 36.616C3.40116 36.36 3.85982 36.168 4.40382 36.04C4.94782 35.9013 5.57182 35.832 6.27582 35.832C6.85182 35.832 7.38516 35.896 7.87582 36.024C8.37716 36.1413 8.81449 36.328 9.18782 36.584C9.57182 36.8293 9.87049 37.144 10.0838 37.528C10.2972 37.912 10.4038 38.376 10.4038 38.92V39.112H8.89982V38.872C8.89982 38.5093 8.78782 38.2 8.56382 37.944C8.33982 37.688 8.03049 37.4907 7.63582 37.352C7.25182 37.2133 6.81449 37.144 6.32382 37.144C5.68382 37.144 5.15049 37.208 4.72382 37.336C4.29716 37.4533 3.97716 37.6293 3.76382 37.864C3.56116 38.088 3.45982 38.344 3.45982 38.632C3.45982 38.9627 3.56116 39.24 3.76382 39.464C3.97716 39.688 4.25449 39.8747 4.59582 40.024C4.93716 40.1627 5.32649 40.2907 5.76382 40.408C6.20116 40.5253 6.64382 40.648 7.09182 40.776C7.55049 40.8933 7.99316 41.032 8.41982 41.192C8.85716 41.3413 9.24649 41.5333 9.58782 41.768C9.93982 41.992 10.2172 42.28 10.4198 42.632C10.6225 42.9733 10.7238 43.3947 10.7238 43.896C10.7238 44.6747 10.5318 45.3093 10.1478 45.8C9.76382 46.28 9.23582 46.632 8.56382 46.856C7.89182 47.08 7.11316 47.192 6.22782 47.192ZM12.6114 47V36.024H14.1314V40.728H20.0994V36.024H21.6354V47H20.0994V42.056H14.1314V47H12.6114ZM28.9707 47.192C27.8294 47.192 26.848 46.984 26.0267 46.568C25.216 46.152 24.5867 45.5227 24.1387 44.68C23.7014 43.8373 23.4827 42.7813 23.4827 41.512C23.4827 40.232 23.7014 39.176 24.1387 38.344C24.5867 37.5013 25.216 36.872 26.0267 36.456C26.848 36.04 27.8294 35.832 28.9707 35.832C30.112 35.832 31.088 36.04 31.8987 36.456C32.72 36.872 33.3494 37.5013 33.7867 38.344C34.2347 39.176 34.4587 40.232 34.4587 41.512C34.4587 42.7813 34.2347 43.8373 33.7867 44.68C33.3494 45.5227 32.72 46.152 31.8987 46.568C31.088 46.984 30.112 47.192 28.9707 47.192ZM28.9707 45.88C29.568 45.88 30.1067 45.8 30.5867 45.64C31.0774 45.48 31.488 45.2293 31.8187 44.888C32.16 44.536 32.4214 44.0987 32.6027 43.576C32.784 43.0427 32.8747 42.4133 32.8747 41.688V41.352C32.8747 40.616 32.784 39.9867 32.6027 39.464C32.4214 38.9307 32.16 38.4933 31.8187 38.152C31.488 37.8 31.0774 37.544 30.5867 37.384C30.1067 37.224 29.568 37.144 28.9707 37.144C28.3627 37.144 27.8187 37.224 27.3387 37.384C26.8587 37.544 26.448 37.8 26.1067 38.152C25.7654 38.4933 25.504 38.9307 25.3227 39.464C25.152 39.9867 25.0667 40.616 25.0667 41.352V41.688C25.0667 42.4133 25.152 43.0427 25.3227 43.576C25.504 44.0987 25.7654 44.536 26.1067 44.888C26.448 45.2293 26.8587 45.48 27.3387 45.64C27.8187 45.8 28.3627 45.88 28.9707 45.88ZM36.3021 47V36.024H41.7261C42.4834 36.024 43.1127 36.168 43.6141 36.456C44.1154 36.7333 44.4887 37.1227 44.7341 37.624C44.9901 38.1253 45.1181 38.7067 45.1181 39.368C45.1181 40.04 44.9794 40.6373 44.7021 41.16C44.4247 41.672 44.0301 42.072 43.5181 42.36C43.0167 42.648 42.4141 42.792 41.7101 42.792H37.8221V47H36.3021ZM37.8221 41.48H41.6141C42.2114 41.48 42.6861 41.2933 43.0381 40.92C43.4007 40.5467 43.5821 40.0347 43.5821 39.384C43.5821 38.9467 43.5074 38.5787 43.3581 38.28C43.2087 37.9813 42.9901 37.752 42.7021 37.592C42.4141 37.4213 42.0514 37.336 41.6141 37.336H37.8221V41.48Z" fill="#3B4A3F"/>
</svg>
